STARTFONT 2.3
FONT -FontForge-Hanalei-Book-R-Normal--8-80-72-72-P-41-ISO10646-1
SIZE 8 72 72  4
FONTBOUNDINGBOX 11 11 -1 -2
COMMENT "Generated by fontforge, http://fontforge.sourceforge.net"
COMMENT "Copyright (c) 2012 by Brian J. Bonislawsky DBA Astigmatic (AOETI) (astigma@astigmatic.com), with ReservedFont Name "Hanalei""
STARTPROPERTIES 40
FOUNDRY "FontForge"
FAMILY_NAME "Hanalei"
WEIGHT_NAME "Book"
SLANT "R"
SETWIDTH_NAME "Normal"
ADD_STYLE_NAME ""
PIXEL_SIZE 8
POINT_SIZE 80
RESOLUTION_X 72
RESOLUTION_Y 72
SPACING "P"
AVERAGE_WIDTH 41
CHARSET_REGISTRY "ISO10646"
CHARSET_ENCODING "1"
FONTNAME_REGISTRY ""
CHARSET_COLLECTIONS "ISO8859-2 ISO8859-9 ISO8859-4 ISO10646-1"
BITS_PER_PIXEL 4
FONT_NAME "Hanalei-Regular"
FACE_NAME "Hanalei"
COPYRIGHT "Copyright (c) 2012 by Brian J. Bonislawsky DBA Astigmatic (AOETI) (astigma@astigmatic.com), with ReservedFont Name "Hanalei""
FONT_VERSION "1.000"
FONT_ASCENT 6
FONT_DESCENT 2
UNDERLINE_POSITION -1
UNDERLINE_THICKNESS 1
X_HEIGHT 5
CAP_HEIGHT 5
RAW_ASCENT 799
RAW_DESCENT 200
NORM_SPACE 2
RELATIVE_WEIGHT 40
RELATIVE_SETWIDTH 50
SUPERSCRIPT_X 0
SUPERSCRIPT_Y 3
SUPERSCRIPT_SIZE 5
SUBSCRIPT_X 0
SUBSCRIPT_Y 1
SUBSCRIPT_SIZE 5
AVG_LOWERCASE_WIDTH 43
AVG_UPPERCASE_WIDTH 42
ENDPROPERTIES
CHARS 366
STARTCHAR space
ENCODING 32
SWIDTH 200 0
DWIDTH 2 0
BBX 1 1 0 0
BITMAP
00
ENDCHAR
STARTCHAR exclam
ENCODING 33
SWIDTH 257 0
DWIDTH 2 0
BBX 2 7 0 -1
BITMAP
23
33
54
33
33
43
10
ENDCHAR
STARTCHAR quotedbl
ENCODING 34
SWIDTH 476 0
DWIDTH 4 0
BBX 4 4 0 2
BITMAP
3343
4453
3333
2232
ENDCHAR
STARTCHAR numbersign
ENCODING 35
SWIDTH 1076 0
DWIDTH 9 0
BBX 9 6 0 0
BITMAP
2413234310
3333355430
4555333330
4535456330
3343356510
4435443400
ENDCHAR
STARTCHAR dollar
ENCODING 36
SWIDTH 453 0
DWIDTH 4 0
BBX 4 8 0 -1
BITMAP
0210
0340
3623
5541
3432
3644
4451
0430
ENDCHAR
STARTCHAR percent
ENCODING 37
SWIDTH 889 0
DWIDTH 7 0
BBX 7 6 0 0
BITMAP
32211000
25422000
45243000
23445550
00233430
00234450
ENDCHAR
STARTCHAR ampersand
ENCODING 38
SWIDTH 627 0
DWIDTH 5 0
BBX 5 7 0 -1
BITMAP
064320
126430
064300
243530
465340
645410
100000
ENDCHAR
STARTCHAR quotesingle
ENCODING 39
SWIDTH 246 0
DWIDTH 2 0
BBX 2 4 0 2
BITMAP
33
44
33
22
ENDCHAR
STARTCHAR parenleft
ENCODING 40
SWIDTH 387 0
DWIDTH 3 0
BBX 4 7 0 -1
BITMAP
0440
3430
3300
6600
3330
0431
0130
ENDCHAR
STARTCHAR parenright
ENCODING 41
SWIDTH 386 0
DWIDTH 3 0
BBX 4 7 0 -1
BITMAP
4400
2340
0331
0561
3330
3300
3100
ENDCHAR
STARTCHAR asterisk
ENCODING 42
SWIDTH 517 0
DWIDTH 4 0
BBX 4 4 0 2
BITMAP
0230
4555
2652
2433
ENDCHAR
STARTCHAR plus
ENCODING 43
SWIDTH 458 0
DWIDTH 4 0
BBX 4 5 0 0
BITMAP
0210
2551
4333
1440
0100
ENDCHAR
STARTCHAR comma
ENCODING 44
SWIDTH 228 0
DWIDTH 2 0
BBX 3 2 -1 -1
BITMAP
0340
2420
ENDCHAR
STARTCHAR hyphen
ENCODING 45
SWIDTH 465 0
DWIDTH 4 0
BBX 4 3 0 1
BITMAP
2331
4343
1000
ENDCHAR
STARTCHAR period
ENCODING 46
SWIDTH 202 0
DWIDTH 2 0
BBX 2 3 0 -1
BITMAP
10
43
10
ENDCHAR
STARTCHAR slash
ENCODING 47
SWIDTH 453 0
DWIDTH 4 0
BBX 4 6 0 0
BITMAP
0041
0223
0450
1430
3210
4400
ENDCHAR
STARTCHAR zero
ENCODING 48
SWIDTH 646 0
DWIDTH 5 0
BBX 6 6 0 0
BITMAP
034100
144310
433430
551632
256330
034200
ENDCHAR
STARTCHAR one
ENCODING 49
SWIDTH 400 0
DWIDTH 3 0
BBX 3 7 0 -1
BITMAP
0530
4430
3540
0430
0440
0440
0010
ENDCHAR
STARTCHAR two
ENCODING 50
SWIDTH 502 0
DWIDTH 4 0
BBX 4 6 0 0
BITMAP
0330
3242
4355
0433
4262
5644
ENDCHAR
STARTCHAR three
ENCODING 51
SWIDTH 456 0
DWIDTH 4 0
BBX 4 7 0 -1
BITMAP
2320
4342
1651
3441
2634
4431
1000
ENDCHAR
STARTCHAR four
ENCODING 52
SWIDTH 514 0
DWIDTH 4 0
BBX 4 7 0 -1
BITMAP
0142
0333
3463
3455
2344
0044
0010
ENDCHAR
STARTCHAR five
ENCODING 53
SWIDTH 500 0
DWIDTH 4 0
BBX 4 6 0 0
BITMAP
2342
3443
5442
3364
2454
4434
ENDCHAR
STARTCHAR six
ENCODING 54
SWIDTH 520 0
DWIDTH 4 0
BBX 5 7 0 -1
BITMAP
042000
123000
335000
453410
345520
443200
020000
ENDCHAR
STARTCHAR seven
ENCODING 55
SWIDTH 423 0
DWIDTH 3 0
BBX 4 6 0 0
BITMAP
3431
5534
0441
0530
1340
3320
ENDCHAR
STARTCHAR eight
ENCODING 56
SWIDTH 527 0
DWIDTH 4 0
BBX 5 7 0 -1
BITMAP
234300
535500
344300
143300
345300
456610
010000
ENDCHAR
STARTCHAR nine
ENCODING 57
SWIDTH 500 0
DWIDTH 4 0
BBX 4 7 0 -1
BITMAP
0232
4336
6553
1522
0340
2330
0100
ENDCHAR
STARTCHAR colon
ENCODING 58
SWIDTH 245 0
DWIDTH 2 0
BBX 2 6 0 -1
BITMAP
11
43
11
11
43
10
ENDCHAR
STARTCHAR semicolon
ENCODING 59
SWIDTH 270 0
DWIDTH 2 0
BBX 2 6 0 -1
BITMAP
01
34
01
00
34
42
ENDCHAR
STARTCHAR less
ENCODING 60
SWIDTH 445 0
DWIDTH 4 0
BBX 4 5 0 0
BITMAP
0342
4341
5530
2523
0030
ENDCHAR
STARTCHAR equal
ENCODING 61
SWIDTH 484 0
DWIDTH 4 0
BBX 4 4 0 1
BITMAP
3342
3343
3342
3343
ENDCHAR
STARTCHAR greater
ENCODING 62
SWIDTH 445 0
DWIDTH 4 0
BBX 4 5 0 0
BITMAP
3410
2422
0543
4431
2100
ENDCHAR
STARTCHAR question
ENCODING 63
SWIDTH 455 0
DWIDTH 4 0
BBX 4 7 0 -1
BITMAP
3310
4343
0544
3420
2500
3400
0100
ENDCHAR
STARTCHAR at
ENCODING 64
SWIDTH 812 0
DWIDTH 7 0
BBX 7 7 0 -1
BITMAP
33445300
45555300
44446300
45444510
34344620
35420000
01210000
ENDCHAR
STARTCHAR A
ENCODING 65
SWIDTH 507 0
DWIDTH 4 0
BBX 5 6 0 0
BITMAP
042000
127000
335300
445510
344420
444500
ENDCHAR
STARTCHAR B
ENCODING 66
SWIDTH 533 0
DWIDTH 4 0
BBX 5 7 0 -1
BITMAP
434000
544320
454600
454400
356520
614300
120000
ENDCHAR
STARTCHAR C
ENCODING 67
SWIDTH 515 0
DWIDTH 4 0
BBX 5 7 0 -1
BITMAP
234300
334410
450000
440000
344400
554410
110000
ENDCHAR
STARTCHAR D
ENCODING 68
SWIDTH 520 0
DWIDTH 4 0
BBX 5 7 0 -1
BITMAP
342000
434200
454220
444520
353300
453000
010000
ENDCHAR
STARTCHAR E
ENCODING 69
SWIDTH 490 0
DWIDTH 4 0
BBX 4 6 0 0
BITMAP
3443
3344
4530
4441
3442
4544
ENDCHAR
STARTCHAR F
ENCODING 70
SWIDTH 475 0
DWIDTH 4 0
BBX 4 6 0 0
BITMAP
3443
3344
4530
4441
3300
4400
ENDCHAR
STARTCHAR G
ENCODING 71
SWIDTH 557 0
DWIDTH 4 0
BBX 5 7 0 -1
BITMAP
234300
334410
450300
442120
345330
555430
110000
ENDCHAR
STARTCHAR H
ENCODING 72
SWIDTH 611 0
DWIDTH 5 0
BBX 5 6 0 0
BITMAP
331420
330330
441530
453540
345440
442430
ENDCHAR
STARTCHAR I
ENCODING 73
SWIDTH 266 0
DWIDTH 2 0
BBX 2 6 0 0
BITMAP
33
33
44
44
33
44
ENDCHAR
STARTCHAR J
ENCODING 74
SWIDTH 484 0
DWIDTH 4 0
BBX 5 7 -1 -1
BITMAP
000320
000330
000540
142530
044430
013540
001100
ENDCHAR
STARTCHAR K
ENCODING 75
SWIDTH 541 0
DWIDTH 4 0
BBX 5 6 0 0
BITMAP
330300
334230
453400
454300
355400
443410
ENDCHAR
STARTCHAR L
ENCODING 76
SWIDTH 467 0
DWIDTH 4 0
BBX 4 6 0 0
BITMAP
3300
3300
4400
4400
3433
4544
ENDCHAR
STARTCHAR M
ENCODING 77
SWIDTH 733 0
DWIDTH 6 0
BBX 6 6 0 0
BITMAP
131230
325342
455553
453454
335654
544545
ENDCHAR
STARTCHAR N
ENCODING 78
SWIDTH 598 0
DWIDTH 5 0
BBX 5 6 0 0
BITMAP
241320
333330
454530
463530
334330
443640
ENDCHAR
STARTCHAR O
ENCODING 79
SWIDTH 612 0
DWIDTH 5 0
BBX 5 7 0 -1
BITMAP
234410
334430
450530
440440
344550
554360
110000
ENDCHAR
STARTCHAR P
ENCODING 80
SWIDTH 513 0
DWIDTH 4 0
BBX 5 6 0 0
BITMAP
433000
544320
446610
444200
451000
440000
ENDCHAR
STARTCHAR Q
ENCODING 81
SWIDTH 612 0
DWIDTH 5 0
BBX 5 8 0 -2
BITMAP
234410
334430
450530
440440
344550
554460
132300
001000
ENDCHAR
STARTCHAR R
ENCODING 82
SWIDTH 532 0
DWIDTH 4 0
BBX 5 7 0 -1
BITMAP
333000
544320
545510
345400
455400
432320
110100
ENDCHAR
STARTCHAR S
ENCODING 83
SWIDTH 442 0
DWIDTH 4 0
BBX 4 7 0 -1
BITMAP
3532
5532
3320
0350
3622
4452
1000
ENDCHAR
STARTCHAR T
ENCODING 84
SWIDTH 453 0
DWIDTH 4 0
BBX 4 6 0 0
BITMAP
4433
4443
0530
0430
0440
0530
ENDCHAR
STARTCHAR U
ENCODING 85
SWIDTH 583 0
DWIDTH 5 0
BBX 5 7 0 -1
BITMAP
231310
332130
442330
441430
344530
554640
110000
ENDCHAR
STARTCHAR V
ENCODING 86
SWIDTH 506 0
DWIDTH 4 0
BBX 4 7 0 -1
BITMAP
3212
3333
5444
3253
2522
0650
0100
ENDCHAR
STARTCHAR W
ENCODING 87
SWIDTH 735 0
DWIDTH 6 0
BBX 6 7 0 -1
BITMAP
320022
335423
447453
335523
263632
074540
010010
ENDCHAR
STARTCHAR X
ENCODING 88
SWIDTH 483 0
DWIDTH 4 0
BBX 4 6 0 0
BITMAP
2222
4234
3642
1560
4333
4344
ENDCHAR
STARTCHAR Y
ENCODING 89
SWIDTH 484 0
DWIDTH 4 0
BBX 5 6 -1 0
BITMAP
030230
134330
044530
006310
003400
023200
ENDCHAR
STARTCHAR Z
ENCODING 90
SWIDTH 458 0
DWIDTH 4 0
BBX 4 6 0 0
BITMAP
2332
3436
0441
2430
4441
4633
ENDCHAR
STARTCHAR bracketleft
ENCODING 91
SWIDTH 420 0
DWIDTH 3 0
BBX 4 8 0 -1
BITMAP
0010
3523
3420
5400
4300
4400
4532
1331
ENDCHAR
STARTCHAR backslash
ENCODING 92
SWIDTH 453 0
DWIDTH 4 0
BBX 4 6 0 0
BITMAP
2200
3300
3330
0450
0322
0143
ENDCHAR
STARTCHAR bracketright
ENCODING 93
SWIDTH 420 0
DWIDTH 3 0
BBX 4 8 0 -1
BITMAP
1000
4450
2530
0351
0330
0341
4522
3330
ENDCHAR
STARTCHAR asciicircum
ENCODING 94
SWIDTH 353 0
DWIDTH 3 0
BBX 3 3 0 3
BITMAP
0200
3520
3430
ENDCHAR
STARTCHAR underscore
ENCODING 95
SWIDTH 499 0
DWIDTH 4 0
BBX 4 2 0 -2
BITMAP
2332
3344
ENDCHAR
STARTCHAR grave
ENCODING 96
SWIDTH 183 0
DWIDTH 1 0
BBX 2 2 0 6
BITMAP
41
33
ENDCHAR
STARTCHAR a
ENCODING 97
SWIDTH 507 0
DWIDTH 4 0
BBX 5 6 0 0
BITMAP
042000
127000
335300
445510
344420
444500
ENDCHAR
STARTCHAR b
ENCODING 98
SWIDTH 533 0
DWIDTH 4 0
BBX 5 7 0 -1
BITMAP
434000
544320
454600
454400
356520
614300
120000
ENDCHAR
STARTCHAR c
ENCODING 99
SWIDTH 515 0
DWIDTH 4 0
BBX 5 7 0 -1
BITMAP
234300
334410
450000
440000
344400
554410
110000
ENDCHAR
STARTCHAR d
ENCODING 100
SWIDTH 520 0
DWIDTH 4 0
BBX 5 7 0 -1
BITMAP
342000
434200
454220
444520
353300
453000
010000
ENDCHAR
STARTCHAR e
ENCODING 101
SWIDTH 490 0
DWIDTH 4 0
BBX 4 6 0 0
BITMAP
3443
3344
4530
4441
3442
4544
ENDCHAR
STARTCHAR f
ENCODING 102
SWIDTH 475 0
DWIDTH 4 0
BBX 4 6 0 0
BITMAP
3443
3344
4530
4441
3300
4400
ENDCHAR
STARTCHAR g
ENCODING 103
SWIDTH 557 0
DWIDTH 4 0
BBX 5 7 0 -1
BITMAP
234300
334410
450300
442120
345330
555430
110000
ENDCHAR
STARTCHAR h
ENCODING 104
SWIDTH 611 0
DWIDTH 5 0
BBX 5 6 0 0
BITMAP
331420
330330
441530
453540
345440
442430
ENDCHAR
STARTCHAR i
ENCODING 105
SWIDTH 266 0
DWIDTH 2 0
BBX 2 6 0 0
BITMAP
33
33
44
44
33
44
ENDCHAR
STARTCHAR j
ENCODING 106
SWIDTH 482 0
DWIDTH 4 0
BBX 5 7 -1 -1
BITMAP
000320
000330
000540
142530
044430
013540
001100
ENDCHAR
STARTCHAR k
ENCODING 107
SWIDTH 541 0
DWIDTH 4 0
BBX 5 6 0 0
BITMAP
330300
334230
453400
454300
355400
443410
ENDCHAR
STARTCHAR l
ENCODING 108
SWIDTH 467 0
DWIDTH 4 0
BBX 4 6 0 0
BITMAP
3300
3300
4400
4400
3433
4544
ENDCHAR
STARTCHAR m
ENCODING 109
SWIDTH 733 0
DWIDTH 6 0
BBX 6 6 0 0
BITMAP
131230
325342
455553
453454
335654
544545
ENDCHAR
STARTCHAR n
ENCODING 110
SWIDTH 598 0
DWIDTH 5 0
BBX 5 6 0 0
BITMAP
241320
333330
454530
463530
334330
443640
ENDCHAR
STARTCHAR o
ENCODING 111
SWIDTH 612 0
DWIDTH 5 0
BBX 5 7 0 -1
BITMAP
234410
334430
450530
440440
344550
554360
110000
ENDCHAR
STARTCHAR p
ENCODING 112
SWIDTH 513 0
DWIDTH 4 0
BBX 5 6 0 0
BITMAP
433000
544320
446610
444200
451000
440000
ENDCHAR
STARTCHAR q
ENCODING 113
SWIDTH 612 0
DWIDTH 5 0
BBX 5 8 0 -2
BITMAP
234410
334430
450530
440440
344550
554460
132300
001000
ENDCHAR
STARTCHAR r
ENCODING 114
SWIDTH 532 0
DWIDTH 4 0
BBX 5 7 0 -1
BITMAP
333000
544320
545510
345400
455400
432320
110100
ENDCHAR
STARTCHAR s
ENCODING 115
SWIDTH 442 0
DWIDTH 4 0
BBX 4 7 0 -1
BITMAP
3532
5532
3320
0350
3622
4452
1000
ENDCHAR
STARTCHAR t
ENCODING 116
SWIDTH 453 0
DWIDTH 4 0
BBX 4 6 0 0
BITMAP
4433
4443
0530
0430
0440
0530
ENDCHAR
STARTCHAR u
ENCODING 117
SWIDTH 583 0
DWIDTH 5 0
BBX 5 7 0 -1
BITMAP
231310
332130
442330
441430
344530
554640
110000
ENDCHAR
STARTCHAR v
ENCODING 118
SWIDTH 506 0
DWIDTH 4 0
BBX 4 7 0 -1
BITMAP
3212
3333
5444
3253
2522
0650
0100
ENDCHAR
STARTCHAR w
ENCODING 119
SWIDTH 735 0
DWIDTH 6 0
BBX 6 7 0 -1
BITMAP
320022
335423
447453
335523
263632
074540
010010
ENDCHAR
STARTCHAR x
ENCODING 120
SWIDTH 483 0
DWIDTH 4 0
BBX 4 6 0 0
BITMAP
2222
4234
3642
1560
4333
4344
ENDCHAR
STARTCHAR y
ENCODING 121
SWIDTH 484 0
DWIDTH 4 0
BBX 5 6 -1 0
BITMAP
030230
134330
044530
006310
003400
023200
ENDCHAR
STARTCHAR z
ENCODING 122
SWIDTH 458 0
DWIDTH 4 0
BBX 4 6 0 0
BITMAP
2332
3436
0441
2430
4441
4633
ENDCHAR
STARTCHAR braceleft
ENCODING 123
SWIDTH 473 0
DWIDTH 4 0
BBX 4 8 0 -1
BITMAP
0001
1443
0551
3450
4360
0530
3243
0332
ENDCHAR
STARTCHAR bar
ENCODING 124
SWIDTH 263 0
DWIDTH 2 0
BBX 2 8 0 -1
BITMAP
01
44
43
44
44
34
33
22
ENDCHAR
STARTCHAR braceright
ENCODING 125
SWIDTH 473 0
DWIDTH 4 0
BBX 4 8 0 -1
BITMAP
1000
4440
2540
2443
1633
0440
4431
3320
ENDCHAR
STARTCHAR asciitilde
ENCODING 126
SWIDTH 456 0
DWIDTH 4 0
BBX 4 2 0 2
BITMAP
2643
4460
ENDCHAR
STARTCHAR nonbreakingspace
ENCODING 160
SWIDTH 200 0
DWIDTH 2 0
BBX 1 1 0 0
BITMAP
00
ENDCHAR
STARTCHAR exclamdown
ENCODING 161
SWIDTH 259 0
DWIDTH 2 0
BBX 2 7 0 -1
BITMAP
22
33
34
33
45
44
11
ENDCHAR
STARTCHAR cent
ENCODING 162
SWIDTH 480 0
DWIDTH 4 0
BBX 4 8 0 -1
BITMAP
0120
0331
2443
5331
5400
4552
1543
0440
ENDCHAR
STARTCHAR sterling
ENCODING 163
SWIDTH 594 0
DWIDTH 5 0
BBX 5 6 0 0
BITMAP
013000
062410
256500
434400
156320
056330
ENDCHAR
STARTCHAR currency
ENCODING 164
SWIDTH 640 0
DWIDTH 5 0
BBX 5 6 0 0
BITMAP
110010
446540
345540
345440
444540
112120
ENDCHAR
STARTCHAR yen
ENCODING 165
SWIDTH 575 0
DWIDTH 5 0
BBX 5 6 0 0
BITMAP
120300
433230
146400
245500
245400
044000
ENDCHAR
STARTCHAR brokenbar
ENCODING 166
SWIDTH 258 0
DWIDTH 2 0
BBX 2 8 0 -1
BITMAP
22
33
44
44
22
33
43
33
ENDCHAR
STARTCHAR section
ENCODING 167
SWIDTH 474 0
DWIDTH 4 0
BBX 4 7 0 -1
BITMAP
2432
5452
3444
4542
4724
3353
1000
ENDCHAR
STARTCHAR dieresis
ENCODING 168
SWIDTH 351 0
DWIDTH 3 0
BBX 3 2 0 6
BITMAP
2220
4540
ENDCHAR
STARTCHAR copyright
ENCODING 169
SWIDTH 719 0
DWIDTH 6 0
BBX 6 6 0 0
BITMAP
334452
445543
446343
445243
346433
565562
ENDCHAR
STARTCHAR ordfeminine
ENCODING 170
SWIDTH 455 0
DWIDTH 4 0
BBX 4 6 0 0
BITMAP
0430
2430
4533
6433
5452
3341
ENDCHAR
STARTCHAR guillemotleft
ENCODING 171
SWIDTH 689 0
DWIDTH 6 0
BBX 6 4 0 1
BITMAP
022031
324332
543540
133241
ENDCHAR
STARTCHAR logicalnot
ENCODING 172
SWIDTH 591 0
DWIDTH 5 0
BBX 5 4 0 0
BITMAP
233300
323430
111330
000420
ENDCHAR
STARTCHAR uni00AD
ENCODING 173
SWIDTH 465 0
DWIDTH 4 0
BBX 4 3 0 1
BITMAP
2331
4343
1000
ENDCHAR
STARTCHAR registered
ENCODING 174
SWIDTH 719 0
DWIDTH 6 0
BBX 6 6 0 0
BITMAP
334452
443343
447543
445043
345133
565562
ENDCHAR
STARTCHAR macron
ENCODING 175
SWIDTH 263 0
DWIDTH 2 0
BBX 3 1 0 6
BITMAP
6610
ENDCHAR
STARTCHAR degree
ENCODING 176
SWIDTH 333 0
DWIDTH 3 0
BBX 3 3 0 3
BITMAP
1300
4520
5530
ENDCHAR
STARTCHAR plusminus
ENCODING 177
SWIDTH 464 0
DWIDTH 4 0
BBX 4 6 0 -1
BITMAP
0210
2551
4333
1440
3442
4343
ENDCHAR
STARTCHAR twosuperior
ENCODING 178
SWIDTH 324 0
DWIDTH 3 0
BBX 3 4 0 2
BITMAP
2210
3420
3310
3310
ENDCHAR
STARTCHAR threesuperior
ENCODING 179
SWIDTH 332 0
DWIDTH 3 0
BBX 3 4 0 2
BITMAP
2210
3430
3420
2320
ENDCHAR
STARTCHAR acute
ENCODING 180
SWIDTH 202 0
DWIDTH 2 0
BBX 2 2 0 6
BITMAP
22
52
ENDCHAR
STARTCHAR mu
ENCODING 181
SWIDTH 582 0
DWIDTH 5 0
BBX 5 7 0 -1
BITMAP
231310
333220
443330
331330
454630
345630
440100
ENDCHAR
STARTCHAR paragraph
ENCODING 182
SWIDTH 556 0
DWIDTH 4 0
BBX 5 7 0 -1
BITMAP
023400
444500
556410
154300
006400
003400
000100
ENDCHAR
STARTCHAR periodcentered
ENCODING 183
SWIDTH 215 0
DWIDTH 2 0
BBX 2 2 0 2
BITMAP
32
32
ENDCHAR
STARTCHAR cedilla
ENCODING 184
SWIDTH 237 0
DWIDTH 2 0
BBX 2 3 0 -2
BITMAP
04
35
42
ENDCHAR
STARTCHAR onesuperior
ENCODING 185
SWIDTH 286 0
DWIDTH 2 0
BBX 2 4 0 2
BITMAP
13
35
14
03
ENDCHAR
STARTCHAR ordmasculine
ENCODING 186
SWIDTH 476 0
DWIDTH 4 0
BBX 4 6 0 0
BITMAP
2342
5364
3333
4454
3662
3342
ENDCHAR
STARTCHAR guillemotright
ENCODING 187
SWIDTH 689 0
DWIDTH 6 0
BBX 6 4 0 1
BITMAP
320410
324322
245353
331420
ENDCHAR
STARTCHAR onequarter
ENCODING 188
SWIDTH 790 0
DWIDTH 6 0
BBX 7 6 0 0
BITMAP
03030000
33330000
13530000
03423400
00353510
00323610
ENDCHAR
STARTCHAR onehalf
ENCODING 189
SWIDTH 771 0
DWIDTH 6 0
BBX 6 6 0 0
BITMAP
030300
333300
135300
034434
003333
003365
ENDCHAR
STARTCHAR threequarters
ENCODING 190
SWIDTH 817 0
DWIDTH 7 0
BBX 7 6 0 0
BITMAP
22121000
34332000
34440100
23532410
00234430
00323520
ENDCHAR
STARTCHAR questiondown
ENCODING 191
SWIDTH 455 0
DWIDTH 4 0
BBX 4 7 0 -1
BITMAP
0140
0140
0350
3250
5541
2533
0010
ENDCHAR
STARTCHAR Agrave
ENCODING 192
SWIDTH 507 0
DWIDTH 4 0
BBX 5 8 0 0
BITMAP
041000
033000
042000
127000
335300
445510
344420
444500
ENDCHAR
STARTCHAR Aacute
ENCODING 193
SWIDTH 507 0
DWIDTH 4 0
BBX 5 8 0 0
BITMAP
003200
015100
042000
127000
335300
445510
344420
444500
ENDCHAR
STARTCHAR Acircumflex
ENCODING 194
SWIDTH 507 0
DWIDTH 4 0
BBX 5 8 0 0
BITMAP
046000
154200
042000
127000
335300
445510
344420
444500
ENDCHAR
STARTCHAR Atilde
ENCODING 195
SWIDTH 507 0
DWIDTH 4 0
BBX 5 8 0 0
BITMAP
156400
346200
042000
127000
335300
445510
344420
444500
ENDCHAR
STARTCHAR Adieresis
ENCODING 196
SWIDTH 507 0
DWIDTH 4 0
BBX 5 8 0 0
BITMAP
022100
244300
042000
127000
335300
445510
344420
444500
ENDCHAR
STARTCHAR Aring
ENCODING 197
SWIDTH 507 0
DWIDTH 4 0
BBX 5 9 0 0
BITMAP
022000
145100
066200
042000
127000
335300
445510
344420
444500
ENDCHAR
STARTCHAR AE
ENCODING 198
SWIDTH 797 0
DWIDTH 6 0
BBX 8 6 -1 0
BITMAP
00044531
00323632
00563520
03363540
03551631
14333632
ENDCHAR
STARTCHAR Ccedilla
ENCODING 199
SWIDTH 515 0
DWIDTH 4 0
BBX 5 8 0 -2
BITMAP
234300
334410
450000
440000
344400
555410
137000
033000
ENDCHAR
STARTCHAR Egrave
ENCODING 200
SWIDTH 490 0
DWIDTH 4 0
BBX 4 8 0 0
BITMAP
0420
0330
3443
3344
4530
4441
3442
4544
ENDCHAR
STARTCHAR Eacute
ENCODING 201
SWIDTH 490 0
DWIDTH 4 0
BBX 4 8 0 0
BITMAP
0041
0340
3443
3344
4530
4441
3442
4544
ENDCHAR
STARTCHAR Ecircumflex
ENCODING 202
SWIDTH 490 0
DWIDTH 4 0
BBX 4 8 0 0
BITMAP
0460
1542
3443
3344
4530
4441
3442
4544
ENDCHAR
STARTCHAR Edieresis
ENCODING 203
SWIDTH 490 0
DWIDTH 4 0
BBX 4 8 0 0
BITMAP
0221
2443
3443
3344
4530
4441
3442
4544
ENDCHAR
STARTCHAR Igrave
ENCODING 204
SWIDTH 266 0
DWIDTH 2 0
BBX 2 8 0 0
BITMAP
51
33
33
33
44
44
33
44
ENDCHAR
STARTCHAR Iacute
ENCODING 205
SWIDTH 266 0
DWIDTH 2 0
BBX 3 8 0 0
BITMAP
0320
1510
3300
3300
4400
4400
3300
4400
ENDCHAR
STARTCHAR Icircumflex
ENCODING 206
SWIDTH 266 0
DWIDTH 2 0
BBX 3 8 0 0
BITMAP
3600
5430
3300
3300
4400
4400
3300
4400
ENDCHAR
STARTCHAR Idieresis
ENCODING 207
SWIDTH 266 0
DWIDTH 2 0
BBX 4 8 -1 0
BITMAP
0221
2543
0330
0330
0440
0440
0330
0440
ENDCHAR
STARTCHAR Eth
ENCODING 208
SWIDTH 669 0
DWIDTH 5 0
BBX 7 7 -1 -1
BITMAP
00243000
00342300
03565220
14473440
00334400
00454000
00010000
ENDCHAR
STARTCHAR Ntilde
ENCODING 209
SWIDTH 598 0
DWIDTH 5 0
BBX 5 8 0 0
BITMAP
036420
054600
241320
333330
454530
463530
334330
443640
ENDCHAR
STARTCHAR Ograve
ENCODING 210
SWIDTH 612 0
DWIDTH 5 0
BBX 5 9 0 -1
BITMAP
023000
016000
234410
334430
450530
440440
344550
554360
110000
ENDCHAR
STARTCHAR Oacute
ENCODING 211
SWIDTH 612 0
DWIDTH 5 0
BBX 5 9 0 -1
BITMAP
001300
004300
234410
334430
450530
440440
344550
554360
110000
ENDCHAR
STARTCHAR Ocircumflex
ENCODING 212
SWIDTH 612 0
DWIDTH 5 0
BBX 5 9 0 -1
BITMAP
016200
035400
234410
334430
450530
440440
344550
554360
110000
ENDCHAR
STARTCHAR Otilde
ENCODING 213
SWIDTH 612 0
DWIDTH 5 0
BBX 5 9 0 -1
BITMAP
036430
044600
234410
334430
450530
440440
344550
554360
110000
ENDCHAR
STARTCHAR Odieresis
ENCODING 214
SWIDTH 612 0
DWIDTH 5 0
BBX 5 9 0 -1
BITMAP
022200
045400
234410
334430
450530
440440
344550
554360
110000
ENDCHAR
STARTCHAR multiply
ENCODING 215
SWIDTH 421 0
DWIDTH 3 0
BBX 4 3 0 1
BITMAP
4551
4451
3440
ENDCHAR
STARTCHAR Oslash
ENCODING 216
SWIDTH 612 0
DWIDTH 5 0
BBX 5 7 0 -1
BITMAP
234420
335240
454430
462540
337550
535360
120000
ENDCHAR
STARTCHAR Ugrave
ENCODING 217
SWIDTH 583 0
DWIDTH 5 0
BBX 5 9 0 -1
BITMAP
033000
024000
231310
332130
442330
441430
344530
554640
110000
ENDCHAR
STARTCHAR Uacute
ENCODING 218
SWIDTH 583 0
DWIDTH 5 0
BBX 5 9 0 -1
BITMAP
003200
005100
231310
332130
442330
441430
344530
554640
110000
ENDCHAR
STARTCHAR Ucircumflex
ENCODING 219
SWIDTH 583 0
DWIDTH 5 0
BBX 5 9 0 -1
BITMAP
036100
054300
231310
332130
442330
441430
344530
554640
110000
ENDCHAR
STARTCHAR Udieresis
ENCODING 220
SWIDTH 583 0
DWIDTH 5 0
BBX 5 9 0 -1
BITMAP
022100
055400
231310
332130
442330
441430
344530
554640
110000
ENDCHAR
STARTCHAR Yacute
ENCODING 221
SWIDTH 484 0
DWIDTH 4 0
BBX 5 7 -1 0
BITMAP
000410
033630
134330
044530
006310
003400
023200
ENDCHAR
STARTCHAR Thorn
ENCODING 222
SWIDTH 520 0
DWIDTH 4 0
BBX 5 6 0 0
BITMAP
230000
544100
544220
445610
344100
451000
ENDCHAR
STARTCHAR germandbls
ENCODING 223
SWIDTH 884 0
DWIDTH 7 0
BBX 7 7 0 -1
BITMAP
35334440
55353540
33205400
03503320
36243630
44552640
10001000
ENDCHAR
STARTCHAR agrave
ENCODING 224
SWIDTH 507 0
DWIDTH 4 0
BBX 5 8 0 0
BITMAP
041000
033000
042000
127000
335300
445510
344420
444500
ENDCHAR
STARTCHAR aacute
ENCODING 225
SWIDTH 507 0
DWIDTH 4 0
BBX 5 8 0 0
BITMAP
003200
015100
042000
127000
335300
445510
344420
444500
ENDCHAR
STARTCHAR acircumflex
ENCODING 226
SWIDTH 507 0
DWIDTH 4 0
BBX 5 8 0 0
BITMAP
046000
154200
042000
127000
335300
445510
344420
444500
ENDCHAR
STARTCHAR atilde
ENCODING 227
SWIDTH 507 0
DWIDTH 4 0
BBX 5 8 0 0
BITMAP
156400
346200
042000
127000
335300
445510
344420
444500
ENDCHAR
STARTCHAR adieresis
ENCODING 228
SWIDTH 507 0
DWIDTH 4 0
BBX 5 8 0 0
BITMAP
022100
244300
042000
127000
335300
445510
344420
444500
ENDCHAR
STARTCHAR aring
ENCODING 229
SWIDTH 507 0
DWIDTH 4 0
BBX 5 9 0 0
BITMAP
022000
145100
066200
042000
127000
335300
445510
344420
444500
ENDCHAR
STARTCHAR ae
ENCODING 230
SWIDTH 797 0
DWIDTH 6 0
BBX 8 6 -1 0
BITMAP
00044531
00323632
00563520
03363540
03551631
14333632
ENDCHAR
STARTCHAR ccedilla
ENCODING 231
SWIDTH 515 0
DWIDTH 4 0
BBX 5 8 0 -2
BITMAP
234300
334410
450000
440000
344400
555410
137000
033000
ENDCHAR
STARTCHAR egrave
ENCODING 232
SWIDTH 490 0
DWIDTH 4 0
BBX 4 8 0 0
BITMAP
0420
0330
3443
3344
4530
4441
3442
4544
ENDCHAR
STARTCHAR eacute
ENCODING 233
SWIDTH 490 0
DWIDTH 4 0
BBX 4 8 0 0
BITMAP
0041
0340
3443
3344
4530
4441
3442
4544
ENDCHAR
STARTCHAR ecircumflex
ENCODING 234
SWIDTH 490 0
DWIDTH 4 0
BBX 4 8 0 0
BITMAP
0460
1542
3443
3344
4530
4441
3442
4544
ENDCHAR
STARTCHAR edieresis
ENCODING 235
SWIDTH 490 0
DWIDTH 4 0
BBX 4 8 0 0
BITMAP
0221
2443
3443
3344
4530
4441
3442
4544
ENDCHAR
STARTCHAR igrave
ENCODING 236
SWIDTH 266 0
DWIDTH 2 0
BBX 2 8 0 0
BITMAP
51
33
33
33
44
44
33
44
ENDCHAR
STARTCHAR iacute
ENCODING 237
SWIDTH 266 0
DWIDTH 2 0
BBX 3 8 0 0
BITMAP
0320
1510
3300
3300
4400
4400
3300
4400
ENDCHAR
STARTCHAR icircumflex
ENCODING 238
SWIDTH 266 0
DWIDTH 2 0
BBX 3 8 0 0
BITMAP
3600
5430
3300
3300
4400
4400
3300
4400
ENDCHAR
STARTCHAR idieresis
ENCODING 239
SWIDTH 266 0
DWIDTH 2 0
BBX 4 8 -1 0
BITMAP
0221
2543
0330
0330
0440
0440
0330
0440
ENDCHAR
STARTCHAR eth
ENCODING 240
SWIDTH 669 0
DWIDTH 5 0
BBX 7 7 -1 -1
BITMAP
00243000
00342300
03565220
14473440
00334400
00454000
00010000
ENDCHAR
STARTCHAR ntilde
ENCODING 241
SWIDTH 598 0
DWIDTH 5 0
BBX 5 8 0 0
BITMAP
036420
054600
241320
333330
454530
463530
334330
443640
ENDCHAR
STARTCHAR ograve
ENCODING 242
SWIDTH 612 0
DWIDTH 5 0
BBX 5 9 0 -1
BITMAP
023000
016000
234410
334430
450530
440440
344550
554360
110000
ENDCHAR
STARTCHAR oacute
ENCODING 243
SWIDTH 612 0
DWIDTH 5 0
BBX 5 9 0 -1
BITMAP
001300
004300
234410
334430
450530
440440
344550
554360
110000
ENDCHAR
STARTCHAR ocircumflex
ENCODING 244
SWIDTH 612 0
DWIDTH 5 0
BBX 5 9 0 -1
BITMAP
016200
035400
234410
334430
450530
440440
344550
554360
110000
ENDCHAR
STARTCHAR otilde
ENCODING 245
SWIDTH 612 0
DWIDTH 5 0
BBX 5 9 0 -1
BITMAP
036430
044600
234410
334430
450530
440440
344550
554360
110000
ENDCHAR
STARTCHAR odieresis
ENCODING 246
SWIDTH 612 0
DWIDTH 5 0
BBX 5 9 0 -1
BITMAP
022200
045400
234410
334430
450530
440440
344550
554360
110000
ENDCHAR
STARTCHAR divide
ENCODING 247
SWIDTH 457 0
DWIDTH 4 0
BBX 4 5 0 0
BITMAP
0330
2641
4433
1320
0320
ENDCHAR
STARTCHAR oslash
ENCODING 248
SWIDTH 612 0
DWIDTH 5 0
BBX 5 7 0 -1
BITMAP
234420
335240
454430
462540
337550
535360
120000
ENDCHAR
STARTCHAR ugrave
ENCODING 249
SWIDTH 583 0
DWIDTH 5 0
BBX 5 9 0 -1
BITMAP
033000
024000
231310
332130
442330
441430
344530
554640
110000
ENDCHAR
STARTCHAR uacute
ENCODING 250
SWIDTH 583 0
DWIDTH 5 0
BBX 5 9 0 -1
BITMAP
003200
005100
231310
332130
442330
441430
344530
554640
110000
ENDCHAR
STARTCHAR ucircumflex
ENCODING 251
SWIDTH 583 0
DWIDTH 5 0
BBX 5 9 0 -1
BITMAP
036100
054300
231310
332130
442330
441430
344530
554640
110000
ENDCHAR
STARTCHAR udieresis
ENCODING 252
SWIDTH 583 0
DWIDTH 5 0
BBX 5 9 0 -1
BITMAP
022100
055400
231310
332130
442330
441430
344530
554640
110000
ENDCHAR
STARTCHAR yacute
ENCODING 253
SWIDTH 484 0
DWIDTH 4 0
BBX 5 7 -1 0
BITMAP
000410
033630
134330
044530
006310
003400
023200
ENDCHAR
STARTCHAR thorn
ENCODING 254
SWIDTH 520 0
DWIDTH 4 0
BBX 5 6 0 0
BITMAP
230000
544100
544220
445610
344100
451000
ENDCHAR
STARTCHAR ydieresis
ENCODING 255
SWIDTH 484 0
DWIDTH 4 0
BBX 5 8 -1 0
BITMAP
012200
034430
030230
134330
044530
006310
003400
023200
ENDCHAR
STARTCHAR Amacron
ENCODING 256
SWIDTH 507 0
DWIDTH 4 0
BBX 5 7 0 0
BITMAP
066000
042000
127000
335300
445510
344420
444500
ENDCHAR
STARTCHAR amacron
ENCODING 257
SWIDTH 507 0
DWIDTH 4 0
BBX 5 7 0 0
BITMAP
066000
042000
127000
335300
445510
344420
444500
ENDCHAR
STARTCHAR Abreve
ENCODING 258
SWIDTH 507 0
DWIDTH 4 0
BBX 5 8 0 0
BITMAP
243200
177100
042000
127000
335300
445510
344420
444500
ENDCHAR
STARTCHAR abreve
ENCODING 259
SWIDTH 507 0
DWIDTH 4 0
BBX 5 8 0 0
BITMAP
243200
177100
042000
127000
335300
445510
344420
444500
ENDCHAR
STARTCHAR Aogonek
ENCODING 260
SWIDTH 507 0
DWIDTH 4 0
BBX 5 8 0 -2
BITMAP
042000
127000
335300
445510
344420
444500
003510
000410
ENDCHAR
STARTCHAR aogonek
ENCODING 261
SWIDTH 507 0
DWIDTH 4 0
BBX 5 8 0 -2
BITMAP
042000
127000
335300
445510
344420
444500
003510
000410
ENDCHAR
STARTCHAR Cacute
ENCODING 262
SWIDTH 515 0
DWIDTH 4 0
BBX 5 9 0 -1
BITMAP
002200
005200
234300
334410
450000
440000
344400
554410
110000
ENDCHAR
STARTCHAR cacute
ENCODING 263
SWIDTH 515 0
DWIDTH 4 0
BBX 5 9 0 -1
BITMAP
002200
005200
234300
334410
450000
440000
344400
554410
110000
ENDCHAR
STARTCHAR Ccircumflex
ENCODING 264
SWIDTH 515 0
DWIDTH 4 0
BBX 5 9 0 -1
BITMAP
026200
035400
234300
334410
450000
440000
344400
554410
110000
ENDCHAR
STARTCHAR ccircumflex
ENCODING 265
SWIDTH 515 0
DWIDTH 4 0
BBX 5 9 0 -1
BITMAP
026200
035400
234300
334410
450000
440000
344400
554410
110000
ENDCHAR
STARTCHAR Cdotaccent
ENCODING 266
SWIDTH 515 0
DWIDTH 4 0
BBX 5 9 0 -1
BITMAP
002000
015000
234300
334410
450000
440000
344400
554410
110000
ENDCHAR
STARTCHAR cdotaccent
ENCODING 267
SWIDTH 515 0
DWIDTH 4 0
BBX 5 9 0 -1
BITMAP
002000
015000
234300
334410
450000
440000
344400
554410
110000
ENDCHAR
STARTCHAR Ccaron
ENCODING 268
SWIDTH 515 0
DWIDTH 4 0
BBX 5 9 0 -1
BITMAP
045400
026100
234300
334410
450000
440000
344400
554410
110000
ENDCHAR
STARTCHAR ccaron
ENCODING 269
SWIDTH 515 0
DWIDTH 4 0
BBX 5 9 0 -1
BITMAP
045400
026100
234300
334410
450000
440000
344400
554410
110000
ENDCHAR
STARTCHAR Dcaron
ENCODING 270
SWIDTH 520 0
DWIDTH 4 0
BBX 5 9 0 -1
BITMAP
154200
036000
342000
434200
454220
444520
353300
453000
010000
ENDCHAR
STARTCHAR dcaron
ENCODING 271
SWIDTH 520 0
DWIDTH 4 0
BBX 5 9 0 -1
BITMAP
154200
036000
342000
434200
454220
444520
353300
453000
010000
ENDCHAR
STARTCHAR Dcroat
ENCODING 272
SWIDTH 669 0
DWIDTH 5 0
BBX 7 7 -1 -1
BITMAP
00243000
00342300
03565220
14473440
00334400
00454000
00010000
ENDCHAR
STARTCHAR dcroat
ENCODING 273
SWIDTH 669 0
DWIDTH 5 0
BBX 7 7 -1 -1
BITMAP
00243000
00342300
03565220
14473440
00334400
00454000
00010000
ENDCHAR
STARTCHAR Emacron
ENCODING 274
SWIDTH 490 0
DWIDTH 4 0
BBX 4 7 0 0
BITMAP
0660
3443
3344
4530
4441
3442
4544
ENDCHAR
STARTCHAR emacron
ENCODING 275
SWIDTH 490 0
DWIDTH 4 0
BBX 4 7 0 0
BITMAP
0660
3443
3344
4530
4441
3442
4544
ENDCHAR
STARTCHAR Ebreve
ENCODING 276
SWIDTH 490 0
DWIDTH 4 0
BBX 4 8 0 0
BITMAP
1533
0772
3443
3344
4530
4441
3442
4544
ENDCHAR
STARTCHAR ebreve
ENCODING 277
SWIDTH 490 0
DWIDTH 4 0
BBX 4 8 0 0
BITMAP
1533
0772
3443
3344
4530
4441
3442
4544
ENDCHAR
STARTCHAR Edotaccent
ENCODING 278
SWIDTH 490 0
DWIDTH 4 0
BBX 4 8 0 0
BITMAP
0110
0430
3443
3344
4530
4441
3442
4544
ENDCHAR
STARTCHAR edotaccent
ENCODING 279
SWIDTH 490 0
DWIDTH 4 0
BBX 4 8 0 0
BITMAP
0110
0430
3443
3344
4530
4441
3442
4544
ENDCHAR
STARTCHAR Eogonek
ENCODING 280
SWIDTH 490 0
DWIDTH 4 0
BBX 4 8 0 -2
BITMAP
3443
3344
4530
4441
3442
4554
0053
0023
ENDCHAR
STARTCHAR eogonek
ENCODING 281
SWIDTH 490 0
DWIDTH 4 0
BBX 4 8 0 -2
BITMAP
3443
3344
4530
4441
3442
4554
0053
0023
ENDCHAR
STARTCHAR Ecaron
ENCODING 282
SWIDTH 490 0
DWIDTH 4 0
BBX 4 8 0 0
BITMAP
0543
0360
3443
3344
4530
4441
3442
4544
ENDCHAR
STARTCHAR ecaron
ENCODING 283
SWIDTH 490 0
DWIDTH 4 0
BBX 4 8 0 0
BITMAP
0543
0360
3443
3344
4530
4441
3442
4544
ENDCHAR
STARTCHAR Gcircumflex
ENCODING 284
SWIDTH 557 0
DWIDTH 4 0
BBX 5 9 0 -1
BITMAP
026100
045400
234300
334410
450300
442120
345330
555430
110000
ENDCHAR
STARTCHAR gcircumflex
ENCODING 285
SWIDTH 557 0
DWIDTH 4 0
BBX 5 9 0 -1
BITMAP
026100
045400
234300
334410
450300
442120
345330
555430
110000
ENDCHAR
STARTCHAR Gbreve
ENCODING 286
SWIDTH 557 0
DWIDTH 4 0
BBX 5 9 0 -1
BITMAP
054300
047400
234300
334410
450300
442120
345330
555430
110000
ENDCHAR
STARTCHAR gbreve
ENCODING 287
SWIDTH 557 0
DWIDTH 4 0
BBX 5 9 0 -1
BITMAP
054300
047400
234300
334410
450300
442120
345330
555430
110000
ENDCHAR
STARTCHAR Gdotaccent
ENCODING 288
SWIDTH 557 0
DWIDTH 4 0
BBX 5 9 0 -1
BITMAP
002000
015000
234300
334410
450300
442120
345330
555430
110000
ENDCHAR
STARTCHAR gdotaccent
ENCODING 289
SWIDTH 557 0
DWIDTH 4 0
BBX 5 9 0 -1
BITMAP
002000
015000
234300
334410
450300
442120
345330
555430
110000
ENDCHAR
STARTCHAR Gcommaaccent
ENCODING 290
SWIDTH 557 0
DWIDTH 4 0
BBX 5 8 0 -2
BITMAP
234300
334410
450300
442120
345330
555430
123000
053000
ENDCHAR
STARTCHAR gcommaaccent
ENCODING 291
SWIDTH 557 0
DWIDTH 4 0
BBX 5 8 0 -2
BITMAP
234300
334410
450300
442120
345330
555430
123000
053000
ENDCHAR
STARTCHAR Hcircumflex
ENCODING 292
SWIDTH 611 0
DWIDTH 5 0
BBX 5 8 0 0
BITMAP
026100
045400
331420
330330
441530
453540
345440
442430
ENDCHAR
STARTCHAR hcircumflex
ENCODING 293
SWIDTH 611 0
DWIDTH 5 0
BBX 5 8 0 0
BITMAP
026100
045400
331420
330330
441530
453540
345440
442430
ENDCHAR
STARTCHAR Hbar
ENCODING 294
SWIDTH 706 0
DWIDTH 6 0
BBX 6 6 0 0
BITMAP
132340
426542
535543
245533
217441
233440
ENDCHAR
STARTCHAR hbar
ENCODING 295
SWIDTH 706 0
DWIDTH 6 0
BBX 6 6 0 0
BITMAP
132340
426542
535543
245533
217441
233440
ENDCHAR
STARTCHAR Itilde
ENCODING 296
SWIDTH 266 0
DWIDTH 2 0
BBX 4 8 -1 0
BITMAP
0564
3463
0330
0330
0440
0440
0330
0440
ENDCHAR
STARTCHAR itilde
ENCODING 297
SWIDTH 266 0
DWIDTH 2 0
BBX 4 8 -1 0
BITMAP
0564
3463
0330
0330
0440
0440
0330
0440
ENDCHAR
STARTCHAR Imacron
ENCODING 298
SWIDTH 266 0
DWIDTH 2 0
BBX 3 7 0 0
BITMAP
6610
3300
3300
4400
4400
3300
4400
ENDCHAR
STARTCHAR imacron
ENCODING 299
SWIDTH 266 0
DWIDTH 2 0
BBX 3 7 0 0
BITMAP
6610
3300
3300
4400
4400
3300
4400
ENDCHAR
STARTCHAR Ibreve
ENCODING 300
SWIDTH 266 0
DWIDTH 2 0
BBX 4 8 -1 0
BITMAP
1533
0672
0330
0330
0440
0440
0330
0440
ENDCHAR
STARTCHAR ibreve
ENCODING 301
SWIDTH 266 0
DWIDTH 2 0
BBX 4 8 -1 0
BITMAP
1533
0672
0330
0330
0440
0440
0330
0440
ENDCHAR
STARTCHAR Iogonek
ENCODING 302
SWIDTH 266 0
DWIDTH 2 0
BBX 2 8 0 -2
BITMAP
33
33
44
44
33
44
43
34
ENDCHAR
STARTCHAR iogonek
ENCODING 303
SWIDTH 266 0
DWIDTH 2 0
BBX 2 8 0 -2
BITMAP
33
33
44
44
33
44
43
34
ENDCHAR
STARTCHAR Idotaccent
ENCODING 304
SWIDTH 266 0
DWIDTH 2 0
BBX 2 8 0 0
BITMAP
12
33
33
33
44
44
33
44
ENDCHAR
STARTCHAR dotlessi
ENCODING 305
SWIDTH 266 0
DWIDTH 2 0
BBX 2 6 0 0
BITMAP
33
33
44
44
33
44
ENDCHAR
STARTCHAR IJ
ENCODING 306
SWIDTH 750 0
DWIDTH 6 0
BBX 6 7 0 -1
BITMAP
330033
330033
440054
444344
334453
440354
000120
ENDCHAR
STARTCHAR ij
ENCODING 307
SWIDTH 749 0
DWIDTH 6 0
BBX 6 7 0 -1
BITMAP
330033
330033
440054
444344
334453
440354
000120
ENDCHAR
STARTCHAR Jcircumflex
ENCODING 308
SWIDTH 484 0
DWIDTH 4 0
BBX 5 9 -1 -1
BITMAP
000550
003450
000320
000330
000540
142530
044430
013540
001100
ENDCHAR
STARTCHAR jcircumflex
ENCODING 309
SWIDTH 482 0
DWIDTH 4 0
BBX 5 9 -1 -1
BITMAP
000550
003450
000320
000330
000540
142530
044430
013540
001100
ENDCHAR
STARTCHAR Kcommaaccent
ENCODING 310
SWIDTH 541 0
DWIDTH 4 0
BBX 5 8 0 -2
BITMAP
330300
334230
453400
454300
355400
443410
023000
052000
ENDCHAR
STARTCHAR kcommaaccent
ENCODING 311
SWIDTH 541 0
DWIDTH 4 0
BBX 5 8 0 -2
BITMAP
330300
334230
453400
454300
355400
443410
023000
052000
ENDCHAR
STARTCHAR kgreenlandic
ENCODING 312
SWIDTH 541 0
DWIDTH 4 0
BBX 5 6 0 0
BITMAP
330300
334230
453400
454300
355400
443410
ENDCHAR
STARTCHAR Lacute
ENCODING 313
SWIDTH 467 0
DWIDTH 4 0
BBX 4 8 0 0
BITMAP
0220
0520
3300
3300
4400
4400
3433
4544
ENDCHAR
STARTCHAR lacute
ENCODING 314
SWIDTH 467 0
DWIDTH 4 0
BBX 4 8 0 0
BITMAP
0220
0520
3300
3300
4400
4400
3433
4544
ENDCHAR
STARTCHAR Lcommaaccent
ENCODING 315
SWIDTH 467 0
DWIDTH 4 0
BBX 4 8 0 -2
BITMAP
3300
3300
4400
4400
3433
4544
0320
1510
ENDCHAR
STARTCHAR lcommaaccent
ENCODING 316
SWIDTH 467 0
DWIDTH 4 0
BBX 4 8 0 -2
BITMAP
3300
3300
4400
4400
3433
4544
0320
1510
ENDCHAR
STARTCHAR Lcaron
ENCODING 317
SWIDTH 467 0
DWIDTH 4 0
BBX 4 7 0 0
BITMAP
0022
3352
3310
4400
4400
3433
4544
ENDCHAR
STARTCHAR lcaron
ENCODING 318
SWIDTH 467 0
DWIDTH 4 0
BBX 4 7 0 0
BITMAP
0022
3352
3310
4400
4400
3433
4544
ENDCHAR
STARTCHAR Ldot
ENCODING 319
SWIDTH 611 0
DWIDTH 5 0
BBX 5 6 0 0
BITMAP
330000
330000
440220
440330
343300
454400
ENDCHAR
STARTCHAR ldotaccent
ENCODING 320
SWIDTH 611 0
DWIDTH 5 0
BBX 5 6 0 0
BITMAP
330000
330000
440220
440330
343300
454400
ENDCHAR
STARTCHAR Lslash
ENCODING 321
SWIDTH 505 0
DWIDTH 4 0
BBX 6 6 -1 0
BITMAP
023100
032100
064400
164400
033430
034541
ENDCHAR
STARTCHAR lslash
ENCODING 322
SWIDTH 505 0
DWIDTH 4 0
BBX 6 6 -1 0
BITMAP
023100
032100
064400
164400
033430
034541
ENDCHAR
STARTCHAR Nacute
ENCODING 323
SWIDTH 598 0
DWIDTH 5 0
BBX 5 8 0 0
BITMAP
002300
005200
241320
333330
454530
463530
334330
443640
ENDCHAR
STARTCHAR nacute
ENCODING 324
SWIDTH 598 0
DWIDTH 5 0
BBX 5 8 0 0
BITMAP
002300
005200
241320
333330
454530
463530
334330
443640
ENDCHAR
STARTCHAR Ncommaaccent
ENCODING 325
SWIDTH 598 0
DWIDTH 5 0
BBX 5 8 0 -2
BITMAP
241320
333330
454530
463530
334330
443640
014000
043000
ENDCHAR
STARTCHAR ncommaaccent
ENCODING 326
SWIDTH 598 0
DWIDTH 5 0
BBX 5 8 0 -2
BITMAP
241320
333330
454530
463530
334330
443640
014000
043000
ENDCHAR
STARTCHAR Ncaron
ENCODING 327
SWIDTH 598 0
DWIDTH 5 0
BBX 5 8 0 0
BITMAP
045400
026100
241320
333330
454530
463530
334330
443640
ENDCHAR
STARTCHAR ncaron
ENCODING 328
SWIDTH 598 0
DWIDTH 5 0
BBX 5 8 0 0
BITMAP
045400
026100
241320
333330
454530
463530
334330
443640
ENDCHAR
STARTCHAR napostrophe
ENCODING 329
SWIDTH 807 0
DWIDTH 6 0
BBX 7 6 0 0
BITMAP
22341310
52354110
10547320
00565410
00352510
00434710
ENDCHAR
STARTCHAR Eng
ENCODING 330
SWIDTH 595 0
DWIDTH 5 0
BBX 5 8 0 -2
BITMAP
241320
333330
544630
463330
334430
443430
135530
234300
ENDCHAR
STARTCHAR eng
ENCODING 331
SWIDTH 595 0
DWIDTH 5 0
BBX 5 8 0 -2
BITMAP
241320
333330
544630
463330
334430
443430
135530
234300
ENDCHAR
STARTCHAR Omacron
ENCODING 332
SWIDTH 612 0
DWIDTH 5 0
BBX 5 8 0 -1
BITMAP
046400
234410
334430
450530
440440
344550
554360
110000
ENDCHAR
STARTCHAR omacron
ENCODING 333
SWIDTH 612 0
DWIDTH 5 0
BBX 5 8 0 -1
BITMAP
046400
234410
334430
450530
440440
344550
554360
110000
ENDCHAR
STARTCHAR Obreve
ENCODING 334
SWIDTH 612 0
DWIDTH 5 0
BBX 5 9 0 -1
BITMAP
044400
037500
234410
334430
450530
440440
344550
554360
110000
ENDCHAR
STARTCHAR obreve
ENCODING 335
SWIDTH 612 0
DWIDTH 5 0
BBX 5 9 0 -1
BITMAP
044400
037500
234410
334430
450530
440440
344550
554360
110000
ENDCHAR
STARTCHAR Ohungarumlaut
ENCODING 336
SWIDTH 612 0
DWIDTH 5 0
BBX 5 9 0 -1
BITMAP
004420
035610
234410
334430
450530
440440
344550
554360
110000
ENDCHAR
STARTCHAR ohungarumlaut
ENCODING 337
SWIDTH 612 0
DWIDTH 5 0
BBX 5 9 0 -1
BITMAP
004420
035610
234410
334430
450530
440440
344550
554360
110000
ENDCHAR
STARTCHAR OE
ENCODING 338
SWIDTH 831 0
DWIDTH 7 0
BBX 7 7 0 -1
BITMAP
23454420
33445430
45055300
44054400
34455320
55466330
11000000
ENDCHAR
STARTCHAR oe
ENCODING 339
SWIDTH 831 0
DWIDTH 7 0
BBX 7 7 0 -1
BITMAP
23454420
33445430
45055300
44054400
34455320
55466330
11000000
ENDCHAR
STARTCHAR Racute
ENCODING 340
SWIDTH 532 0
DWIDTH 4 0
BBX 5 9 0 -1
BITMAP
003200
005100
333000
544320
545510
345400
455400
432320
110100
ENDCHAR
STARTCHAR racute
ENCODING 341
SWIDTH 532 0
DWIDTH 4 0
BBX 5 9 0 -1
BITMAP
003200
005100
333000
544320
545510
345400
455400
432320
110100
ENDCHAR
STARTCHAR Rcommaaccent
ENCODING 342
SWIDTH 532 0
DWIDTH 4 0
BBX 5 8 0 -2
BITMAP
333000
544320
545510
345400
455400
432320
133100
052000
ENDCHAR
STARTCHAR rcommaaccent
ENCODING 343
SWIDTH 532 0
DWIDTH 4 0
BBX 5 8 0 -2
BITMAP
333000
544320
545510
345400
455400
432320
133100
052000
ENDCHAR
STARTCHAR Rcaron
ENCODING 344
SWIDTH 532 0
DWIDTH 4 0
BBX 5 9 0 -1
BITMAP
054300
036000
333000
544320
545510
345400
455400
432320
110100
ENDCHAR
STARTCHAR rcaron
ENCODING 345
SWIDTH 532 0
DWIDTH 4 0
BBX 5 9 0 -1
BITMAP
054300
036000
333000
544320
545510
345400
455400
432320
110100
ENDCHAR
STARTCHAR Sacute
ENCODING 346
SWIDTH 442 0
DWIDTH 4 0
BBX 4 9 0 -1
BITMAP
0140
0430
3532
5532
3320
0350
3622
4452
1000
ENDCHAR
STARTCHAR sacute
ENCODING 347
SWIDTH 442 0
DWIDTH 4 0
BBX 4 9 0 -1
BITMAP
0140
0430
3532
5532
3320
0350
3622
4452
1000
ENDCHAR
STARTCHAR Scircumflex
ENCODING 348
SWIDTH 442 0
DWIDTH 4 0
BBX 4 9 0 -1
BITMAP
0540
3450
3532
5532
3320
0350
3622
4452
1000
ENDCHAR
STARTCHAR scircumflex
ENCODING 349
SWIDTH 442 0
DWIDTH 4 0
BBX 4 9 0 -1
BITMAP
0540
3450
3532
5532
3320
0350
3622
4452
1000
ENDCHAR
STARTCHAR Scedilla
ENCODING 350
SWIDTH 442 0
DWIDTH 4 0
BBX 4 8 0 -2
BITMAP
3532
5532
3320
0350
3622
4562
2440
1310
ENDCHAR
STARTCHAR scedilla
ENCODING 351
SWIDTH 442 0
DWIDTH 4 0
BBX 4 8 0 -2
BITMAP
3532
5532
3320
0350
3622
4562
2440
1310
ENDCHAR
STARTCHAR Scaron
ENCODING 352
SWIDTH 442 0
DWIDTH 4 0
BBX 4 9 0 -1
BITMAP
3450
0540
3532
5532
3320
0350
3622
4452
1000
ENDCHAR
STARTCHAR scaron
ENCODING 353
SWIDTH 442 0
DWIDTH 4 0
BBX 4 9 0 -1
BITMAP
3450
0540
3532
5532
3320
0350
3622
4452
1000
ENDCHAR
STARTCHAR Tcommaaccent
ENCODING 354
SWIDTH 453 0
DWIDTH 4 0
BBX 4 8 0 -2
BITMAP
4433
4443
0530
0430
0440
0530
0410
3400
ENDCHAR
STARTCHAR tcommaaccent
ENCODING 355
SWIDTH 453 0
DWIDTH 4 0
BBX 4 8 0 -2
BITMAP
4433
4443
0530
0430
0440
0530
0410
3400
ENDCHAR
STARTCHAR Tcaron
ENCODING 356
SWIDTH 453 0
DWIDTH 4 0
BBX 4 8 0 0
BITMAP
2451
0450
4433
4443
0530
0430
0440
0530
ENDCHAR
STARTCHAR tcaron
ENCODING 357
SWIDTH 453 0
DWIDTH 4 0
BBX 4 8 0 0
BITMAP
2451
0450
4433
4443
0530
0430
0440
0530
ENDCHAR
STARTCHAR Tbar
ENCODING 358
SWIDTH 455 0
DWIDTH 4 0
BBX 4 7 0 -1
BITMAP
3432
4443
1540
3232
1550
0440
0100
ENDCHAR
STARTCHAR tbar
ENCODING 359
SWIDTH 455 0
DWIDTH 4 0
BBX 4 7 0 -1
BITMAP
3432
4443
1540
3232
1550
0440
0100
ENDCHAR
STARTCHAR Utilde
ENCODING 360
SWIDTH 583 0
DWIDTH 5 0
BBX 5 9 0 -1
BITMAP
036420
054600
231310
332130
442330
441430
344530
554640
110000
ENDCHAR
STARTCHAR utilde
ENCODING 361
SWIDTH 583 0
DWIDTH 5 0
BBX 5 9 0 -1
BITMAP
036420
054600
231310
332130
442330
441430
344530
554640
110000
ENDCHAR
STARTCHAR Umacron
ENCODING 362
SWIDTH 583 0
DWIDTH 5 0
BBX 5 8 0 -1
BITMAP
046300
231310
332130
442330
441430
344530
554640
110000
ENDCHAR
STARTCHAR umacron
ENCODING 363
SWIDTH 583 0
DWIDTH 5 0
BBX 5 8 0 -1
BITMAP
046300
231310
332130
442330
441430
344530
554640
110000
ENDCHAR
STARTCHAR Ubreve
ENCODING 364
SWIDTH 583 0
DWIDTH 5 0
BBX 5 9 0 -1
BITMAP
053300
047400
231310
332130
442330
441430
344530
554640
110000
ENDCHAR
STARTCHAR ubreve
ENCODING 365
SWIDTH 583 0
DWIDTH 5 0
BBX 5 9 0 -1
BITMAP
053300
047400
231310
332130
442330
441430
344530
554640
110000
ENDCHAR
STARTCHAR Uring
ENCODING 366
SWIDTH 583 0
DWIDTH 5 0
BBX 5 10 0 -1
BITMAP
013000
035200
055300
231310
332130
442330
441430
344530
554640
110000
ENDCHAR
STARTCHAR uring
ENCODING 367
SWIDTH 583 0
DWIDTH 5 0
BBX 5 10 0 -1
BITMAP
013000
035200
055300
231310
332130
442330
441430
344530
554640
110000
ENDCHAR
STARTCHAR Uhungarumlaut
ENCODING 368
SWIDTH 583 0
DWIDTH 5 0
BBX 5 9 0 -1
BITMAP
014410
046400
241310
332130
442330
441430
344530
554640
110000
ENDCHAR
STARTCHAR uhungarumlaut
ENCODING 369
SWIDTH 583 0
DWIDTH 5 0
BBX 5 9 0 -1
BITMAP
014410
046400
241310
332130
442330
441430
344530
554640
110000
ENDCHAR
STARTCHAR Uogonek
ENCODING 370
SWIDTH 583 0
DWIDTH 5 0
BBX 5 8 0 -2
BITMAP
231310
332130
442330
441430
344530
554640
112600
000430
ENDCHAR
STARTCHAR uogonek
ENCODING 371
SWIDTH 583 0
DWIDTH 5 0
BBX 5 8 0 -2
BITMAP
231310
332130
442330
441430
344530
554640
112600
000430
ENDCHAR
STARTCHAR Wcircumflex
ENCODING 372
SWIDTH 735 0
DWIDTH 6 0
BBX 6 8 0 -1
BITMAP
004500
344532
335423
447453
335523
263632
074540
010010
ENDCHAR
STARTCHAR wcircumflex
ENCODING 373
SWIDTH 735 0
DWIDTH 6 0
BBX 6 8 0 -1
BITMAP
004500
344532
335423
447453
335523
263632
074540
010010
ENDCHAR
STARTCHAR Ycircumflex
ENCODING 374
SWIDTH 484 0
DWIDTH 4 0
BBX 5 8 -1 0
BITMAP
004500
024510
030230
134330
044530
006310
003400
023200
ENDCHAR
STARTCHAR ycircumflex
ENCODING 375
SWIDTH 484 0
DWIDTH 4 0
BBX 5 8 -1 0
BITMAP
004500
024510
030230
134330
044530
006310
003400
023200
ENDCHAR
STARTCHAR Ydieresis
ENCODING 376
SWIDTH 484 0
DWIDTH 4 0
BBX 5 8 -1 0
BITMAP
012200
034430
030230
134330
044530
006310
003400
023200
ENDCHAR
STARTCHAR Zacute
ENCODING 377
SWIDTH 458 0
DWIDTH 4 0
BBX 4 8 0 0
BITMAP
0040
0340
2332
3436
0441
2430
4441
4633
ENDCHAR
STARTCHAR zacute
ENCODING 378
SWIDTH 458 0
DWIDTH 4 0
BBX 4 8 0 0
BITMAP
0040
0340
2332
3436
0441
2430
4441
4633
ENDCHAR
STARTCHAR Zdotaccent
ENCODING 379
SWIDTH 458 0
DWIDTH 4 0
BBX 4 8 0 0
BITMAP
0210
0430
2332
3436
0441
2430
4441
4633
ENDCHAR
STARTCHAR zdotaccent
ENCODING 380
SWIDTH 458 0
DWIDTH 4 0
BBX 4 8 0 0
BITMAP
0210
0430
2332
3436
0441
2430
4441
4633
ENDCHAR
STARTCHAR Zcaron
ENCODING 381
SWIDTH 458 0
DWIDTH 4 0
BBX 4 8 0 0
BITMAP
2451
0450
2332
3436
0441
2430
4441
4633
ENDCHAR
STARTCHAR zcaron
ENCODING 382
SWIDTH 458 0
DWIDTH 4 0
BBX 4 8 0 0
BITMAP
2451
0450
2332
3436
0441
2430
4441
4633
ENDCHAR
STARTCHAR AEacute
ENCODING 508
SWIDTH 797 0
DWIDTH 6 0
BBX 8 8 -1 0
BITMAP
00002200
00005100
00044531
00323632
00563520
03363540
03551631
14333632
ENDCHAR
STARTCHAR aeacute
ENCODING 509
SWIDTH 797 0
DWIDTH 6 0
BBX 8 8 -1 0
BITMAP
00002200
00005100
00044531
00323632
00563520
03363540
03551631
14333632
ENDCHAR
STARTCHAR Oslashacute
ENCODING 510
SWIDTH 612 0
DWIDTH 5 0
BBX 5 9 0 -1
BITMAP
002300
005200
234420
335240
454430
462540
337550
535360
120000
ENDCHAR
STARTCHAR oslashacute
ENCODING 511
SWIDTH 612 0
DWIDTH 5 0
BBX 5 9 0 -1
BITMAP
002300
005200
234420
335240
454430
462540
337550
535360
120000
ENDCHAR
STARTCHAR dotlessj
ENCODING 567
SWIDTH 482 0
DWIDTH 4 0
BBX 5 7 -1 -1
BITMAP
000320
000330
000540
142530
044430
013540
001100
ENDCHAR
STARTCHAR circumflex
ENCODING 710
SWIDTH 308 0
DWIDTH 2 0
BBX 3 2 0 6
BITMAP
3600
5430
ENDCHAR
STARTCHAR caron
ENCODING 711
SWIDTH 310 0
DWIDTH 2 0
BBX 3 2 0 6
BITMAP
5430
3600
ENDCHAR
STARTCHAR breve
ENCODING 728
SWIDTH 333 0
DWIDTH 3 0
BBX 3 2 0 6
BITMAP
5330
5730
ENDCHAR
STARTCHAR dotaccent
ENCODING 729
SWIDTH 166 0
DWIDTH 1 0
BBX 2 2 0 6
BITMAP
21
42
ENDCHAR
STARTCHAR ring
ENCODING 730
SWIDTH 309 0
DWIDTH 2 0
BBX 3 3 0 6
BITMAP
1300
4520
6630
ENDCHAR
STARTCHAR ogonek
ENCODING 731
SWIDTH 226 0
DWIDTH 2 0
BBX 2 3 0 -2
BITMAP
32
53
34
ENDCHAR
STARTCHAR tilde
ENCODING 732
SWIDTH 410 0
DWIDTH 3 0
BBX 4 2 0 6
BITMAP
3652
5460
ENDCHAR
STARTCHAR hungarumlaut
ENCODING 733
SWIDTH 361 0
DWIDTH 3 0
BBX 3 2 0 6
BITMAP
2440
5630
ENDCHAR
STARTCHAR uni0312
ENCODING 786
SWIDTH 202 0
DWIDTH 2 0
BBX 2 3 0 3
BITMAP
22
52
10
ENDCHAR
STARTCHAR uni0315
ENCODING 789
SWIDTH 202 0
DWIDTH 2 0
BBX 2 3 0 3
BITMAP
22
52
10
ENDCHAR
STARTCHAR uni0326
ENCODING 806
SWIDTH 201 0
DWIDTH 2 0
BBX 2 2 0 -2
BITMAP
22
52
ENDCHAR
STARTCHAR Wgrave
ENCODING 7808
SWIDTH 735 0
DWIDTH 6 0
BBX 6 8 0 -1
BITMAP
005000
324322
335423
447453
335523
263632
074540
010010
ENDCHAR
STARTCHAR wgrave
ENCODING 7809
SWIDTH 735 0
DWIDTH 6 0
BBX 6 8 0 -1
BITMAP
005000
324322
335423
447453
335523
263632
074540
010010
ENDCHAR
STARTCHAR Wacute
ENCODING 7810
SWIDTH 735 0
DWIDTH 6 0
BBX 6 8 0 -1
BITMAP
000410
323532
335423
447453
335523
263632
074540
010010
ENDCHAR
STARTCHAR wacute
ENCODING 7811
SWIDTH 735 0
DWIDTH 6 0
BBX 6 8 0 -1
BITMAP
000410
323532
335423
447453
335523
263632
074540
010010
ENDCHAR
STARTCHAR Wdieresis
ENCODING 7812
SWIDTH 735 0
DWIDTH 6 0
BBX 6 8 0 -1
BITMAP
012200
354552
335423
447453
335523
263632
074540
010010
ENDCHAR
STARTCHAR wdieresis
ENCODING 7813
SWIDTH 735 0
DWIDTH 6 0
BBX 6 8 0 -1
BITMAP
012200
354552
335423
447453
335523
263632
074540
010010
ENDCHAR
STARTCHAR Ygrave
ENCODING 7922
SWIDTH 484 0
DWIDTH 4 0
BBX 5 8 -1 0
BITMAP
005000
004300
030230
134330
044530
006310
003400
023200
ENDCHAR
STARTCHAR ygrave
ENCODING 7923
SWIDTH 484 0
DWIDTH 4 0
BBX 5 8 -1 0
BITMAP
005000
004300
030230
134330
044530
006310
003400
023200
ENDCHAR
STARTCHAR endash
ENCODING 8211
SWIDTH 591 0
DWIDTH 5 0
BBX 5 2 0 2
BITMAP
233310
443430
ENDCHAR
STARTCHAR emdash
ENCODING 8212
SWIDTH 726 0
DWIDTH 6 0
BBX 6 2 0 2
BITMAP
233331
434533
ENDCHAR
STARTCHAR quoteleft
ENCODING 8216
SWIDTH 291 0
DWIDTH 2 0
BBX 3 4 0 2
BITMAP
1420
4400
3300
2100
ENDCHAR
STARTCHAR quoteright
ENCODING 8217
SWIDTH 291 0
DWIDTH 2 0
BBX 3 4 0 2
BITMAP
1420
4400
3300
2100
ENDCHAR
STARTCHAR quotesinglbase
ENCODING 8218
SWIDTH 228 0
DWIDTH 2 0
BBX 3 2 -1 -1
BITMAP
0340
2420
ENDCHAR
STARTCHAR quotedblleft
ENCODING 8220
SWIDTH 532 0
DWIDTH 4 0
BBX 5 4 0 2
BITMAP
144410
445400
333300
213100
ENDCHAR
STARTCHAR quotedblright
ENCODING 8221
SWIDTH 532 0
DWIDTH 4 0
BBX 5 4 0 2
BITMAP
144410
445400
333300
213100
ENDCHAR
STARTCHAR quotedblbase
ENCODING 8222
SWIDTH 448 0
DWIDTH 4 0
BBX 5 2 -1 -1
BITMAP
035430
244400
ENDCHAR
STARTCHAR dagger
ENCODING 8224
SWIDTH 453 0
DWIDTH 4 0
BBX 4 8 0 -1
BITMAP
0100
0440
4543
3542
0530
0430
0330
0320
ENDCHAR
STARTCHAR daggerdbl
ENCODING 8225
SWIDTH 462 0
DWIDTH 4 0
BBX 4 8 0 -1
BITMAP
0100
0440
4443
3542
1530
4443
2441
0320
ENDCHAR
STARTCHAR bullet
ENCODING 8226
SWIDTH 275 0
DWIDTH 2 0
BBX 2 2 0 2
BITMAP
23
23
ENDCHAR
STARTCHAR ellipsis
ENCODING 8230
SWIDTH 605 0
DWIDTH 5 0
BBX 5 3 0 -1
BITMAP
102110
455440
101010
ENDCHAR
STARTCHAR perthousand
ENCODING 8240
SWIDTH 1249 0
DWIDTH 10 0
BBX 10 6 0 0
BITMAP
3221100000
2542200000
4524300100
2344555455
0023343352
0023445444
ENDCHAR
STARTCHAR guilsinglleft
ENCODING 8249
SWIDTH 359 0
DWIDTH 3 0
BBX 3 4 0 1
BITMAP
0220
3230
5420
1330
ENDCHAR
STARTCHAR guilsinglright
ENCODING 8250
SWIDTH 359 0
DWIDTH 3 0
BBX 3 4 0 1
BITMAP
3200
3230
2450
3300
ENDCHAR
STARTCHAR fraction
ENCODING 8260
SWIDTH 266 0
DWIDTH 2 0
BBX 3 6 0 0
BITMAP
0300
1310
3300
3200
2300
3200
ENDCHAR
STARTCHAR Euro
ENCODING 8364
SWIDTH 690 0
DWIDTH 6 0
BBX 6 7 0 -1
BITMAP
013431
043532
344100
474000
344431
045432
001000
ENDCHAR
STARTCHAR partialdiff
ENCODING 8706
SWIDTH 519 0
DWIDTH 4 0
BBX 6 7 -1 -1
BITMAP
002400
003220
003440
044550
155530
023441
000200
ENDCHAR
STARTCHAR minus
ENCODING 8722
SWIDTH 467 0
DWIDTH 4 0
BBX 4 3 0 1
BITMAP
2331
4343
1000
ENDCHAR
STARTCHAR fi
ENCODING 64257
SWIDTH 741 0
DWIDTH 6 0
BBX 6 6 0 0
BITMAP
344333
334433
453054
444153
330033
440043
ENDCHAR
STARTCHAR fl
ENCODING 64258
SWIDTH 942 0
DWIDTH 8 0
BBX 8 6 0 0
BITMAP
34433300
33443300
45305400
44415300
33003532
44004634
ENDCHAR
STARTCHAR .notdef
ENCODING -1
SWIDTH 200 0
DWIDTH 2 0
BBX 1 1 0 0
BITMAP
00
ENDCHAR
STARTCHAR .null
ENCODING -1
SWIDTH 0 0
DWIDTH 0 0
BBX 1 1 0 0
BITMAP
00
ENDCHAR
STARTCHAR nonmarkingreturn
ENCODING -1
SWIDTH 200 0
DWIDTH 2 0
BBX 1 1 0 0
BITMAP
00
ENDCHAR
ENDFONT
